<svg width="1440" height="255" viewBox="0 0 1440 255" fill="none" xmlns="http://www.w3.org/2000/svg">
<g opacity="0.1">
<path d="M0 9.3121H36.6361V62.0366H37.0296C46.9359 52.9411 60.0047 48.0776 73.4471 48.4839C106.061 48.4839 128.051 68.9879 128.051 98.8476V163.813H91.4591V105.843C91.4591 89.5356 81.9285 80.4421 64.7908 80.4421C47.6532 80.4421 36.6361 90.5848 36.6361 105.843V163.813H0V9.3121Z" fill="white"/>
<path d="M145.626 132.292C145.626 111.745 160.446 100.946 196.208 96.0934C217.149 93.1205 223.314 90.1914 223.314 84.6829C223.314 78.6934 216.1 74.3216 205.476 74.3216C191.53 74.3216 181.562 81.5351 179.027 93.3829L145.407 87.4371C149.429 63.9603 173.781 47.4347 204.252 47.4347C238.965 47.6096 260.562 65.5779 260.562 93.9949V163.945H227.336V152.621H226.899C218.592 161.759 205.083 167.005 188.601 167.005C162.326 167.005 145.626 153.452 145.626 132.292ZM225.194 121.275V110.083H224.8C222.439 113.45 217.149 115.592 203.64 118.302C186.678 121.712 180.994 124.685 180.994 130.369C180.994 136.052 186.065 138.85 196.645 138.85C212.297 138.85 225.194 130.806 225.194 121.275Z" fill="white"/>
<path d="M407.238 129.975L441.557 120.226C445.405 132.948 457.034 139.681 474.608 139.681C489.429 139.681 497.648 136.97 497.648 132.074C497.648 127.177 491.09 123.811 468.881 120.444C429.535 114.499 413.403 104.137 413.403 83.8084C413.403 62.2114 435.262 47.6094 468.444 47.6094C498.304 47.6094 523.486 61.5994 530.044 81.4913L497.036 91.2405C493.233 81.7099 481.385 75.3707 466.958 75.3707C455.11 75.3707 448.334 78.2998 448.334 83.1963C448.334 88.0928 453.842 90.1913 478.193 93.9948C516.666 100.553 533.366 110.258 533.366 131.156C533.366 153.583 510.501 167.748 473.253 167.748C439.634 167.835 413.359 152.621 407.238 129.975Z" fill="white"/>
<path d="M601.566 81.054V121.494C601.566 128.27 604.321 130.806 612.146 130.806H633.087V163.813H606.638C577.434 163.813 564.93 150.916 564.93 124.904V81.1851H538.699V51.6314H564.93V22.646H601.566V51.6314H637.328V81.054H601.566Z" fill="white"/>
<path d="M647.69 132.292C647.69 111.745 662.511 100.946 698.273 96.0934C719.257 93.1205 725.378 90.1914 725.378 84.6829C725.378 78.5186 718.165 74.4965 707.366 74.4965C693.42 74.4965 683.452 81.71 680.916 93.5577L647.472 87.4371C651.494 63.9603 675.845 47.4347 706.317 47.4347C741.029 47.4347 762.626 65.2281 762.626 93.82V163.77H729.4V152.621H728.963C720.525 161.933 707.104 167.005 690.666 167.005C664.522 167.005 647.69 153.452 647.69 132.292ZM727.258 121.275V110.083H726.864C724.547 113.45 719.257 115.592 705.705 118.302C688.742 121.712 683.059 124.685 683.059 130.369C683.059 136.052 688.13 138.85 698.71 138.85C714.361 138.85 727.258 130.806 727.258 121.275Z" fill="white"/>
<path d="M779.764 107.722C779.764 73.0099 807.088 47.6094 843.68 47.6094C873.321 47.6094 897.235 63.9164 903.793 87.8305L869.736 98.2355C868.179 92.5809 864.72 87.6362 859.941 84.2355C855.163 80.8349 849.358 79.1862 843.505 79.5677C827.417 79.5677 816.225 90.8033 816.225 107.722C816.225 124.641 827.417 135.877 843.505 135.877C849.355 136.278 855.164 134.642 859.945 131.247C864.726 127.852 868.186 122.908 869.736 117.253L903.793 127.614C897.235 151.572 873.19 167.835 843.68 167.835C807.088 167.835 779.764 142.435 779.764 107.722Z" fill="white"/>
<path d="M921.805 9.3121H958.397V92.3773H958.834L1005.18 51.5005H1055.36L1002.03 97.1426L1055.98 163.813H1012.83L977.852 118.74H977.414L958.353 134.391V163.813H921.761L921.805 9.3121Z" fill="white"/>
<path d="M1053.88 129.975L1088.15 120.226C1091.96 132.948 1103.63 139.681 1121.16 139.681C1135.98 139.681 1144.25 136.97 1144.25 132.074C1144.25 127.177 1137.69 123.811 1115.48 120.444C1076.13 114.499 1060 104.137 1060 83.8084C1060 62.2114 1081.86 47.6094 1115.04 47.6094C1144.9 47.6094 1170.08 61.5994 1176.64 81.4913L1143.63 91.2405C1139.83 81.7099 1127.94 75.3707 1113.55 75.3707C1101.71 75.3707 1094.93 78.2998 1094.93 83.1963C1094.93 88.0928 1100.44 90.1913 1124.79 93.9948C1163.31 100.334 1179.83 110.258 1179.83 131.243C1179.83 153.671 1156.97 167.835 1119.72 167.835C1086.27 167.835 1060 152.621 1053.88 129.975Z" fill="white"/>
<path d="M1202.26 124.904H1242.26V163.813H1202.26V124.904Z" fill="white"/>
<path d="M1267.22 132.292C1267.22 111.745 1282.05 100.946 1317.81 96.0934C1338.79 93.1205 1344.91 90.1914 1344.91 84.6829C1344.91 78.6934 1337.79 74.3216 1326.9 74.3216C1312.95 74.3216 1302.99 81.5351 1300.45 93.3829L1267.01 87.4371C1271.03 63.9603 1295.38 47.4347 1325.85 47.4347C1360.56 47.4347 1382.16 65.2281 1382.16 93.82V163.77H1348.93V152.621H1348.5C1340.06 161.933 1326.64 167.005 1310.2 167.005C1283.97 167.005 1267.22 153.452 1267.22 132.292ZM1346.79 121.275V110.083H1346.53C1344.21 113.45 1338.92 115.592 1325.37 118.302C1308.41 121.712 1302.72 124.685 1302.72 130.369C1302.72 136.052 1307.8 138.85 1318.38 138.85C1333.9 138.85 1346.79 130.806 1346.79 121.275Z" fill="white"/>
<path d="M1403.36 0H1440V34.2753H1403.36V0ZM1403.36 51.6316H1440V163.813H1403.36V51.6316Z" fill="white"/>
<path d="M332.654 110.258L306.073 51.6317H265.196L315.298 152.796L332.654 110.258Z" fill="white"/>
<path d="M306.467 221.827C307.095 221.827 307.603 221.318 307.603 220.691C307.603 220.063 307.095 219.554 306.467 219.554C305.839 219.554 305.33 220.063 305.33 220.691C305.33 221.318 305.839 221.827 306.467 221.827Z" fill="white"/>
<path d="M403.784 24.4385H403.522C401.453 23.4294 399.199 22.8554 396.899 22.7521C394.599 22.6487 392.303 23.0183 390.151 23.8378C388 24.6573 386.04 25.9094 384.392 27.5167C382.744 29.124 381.443 31.0522 380.57 33.1823L292.083 253.567C292.049 253.636 292.028 253.711 292.023 253.788C292.018 253.865 292.027 253.942 292.052 254.015C292.076 254.088 292.114 254.156 292.165 254.214C292.215 254.272 292.277 254.32 292.346 254.354C292.415 254.389 292.49 254.409 292.566 254.415C292.643 254.42 292.72 254.41 292.794 254.386C292.867 254.362 292.934 254.323 292.992 254.273C293.051 254.222 293.098 254.161 293.133 254.092L410.954 48.0903C412.128 46.0878 412.874 43.8643 413.147 41.5594C413.42 39.2545 413.214 36.918 412.54 34.6968C411.867 32.4756 410.741 30.4177 409.235 28.6523C407.728 26.887 405.872 25.4523 403.784 24.4385ZM400.68 45.8169L395.478 54.8229C395.139 55.5291 394.664 56.1616 394.081 56.6844C393.498 57.2072 392.818 57.61 392.079 57.8698C390.587 58.3945 388.947 58.305 387.521 57.6209C386.095 56.9368 384.999 55.7142 384.474 54.222C383.949 52.7298 384.039 51.0903 384.723 49.6641L388.57 40.0023C388.918 39.16 389.435 38.3976 390.088 37.762C390.741 37.1265 391.518 36.6312 392.369 36.3065C393.221 35.9817 394.13 35.8345 395.04 35.8738C395.951 35.9131 396.844 36.138 397.665 36.5348C398.485 36.9317 399.216 37.492 399.812 38.1814C400.408 38.8709 400.857 39.6749 401.131 40.5441C401.405 41.4133 401.499 42.3294 401.407 43.2361C401.314 44.1428 401.037 45.0211 400.593 45.8169H400.68Z" fill="#3DFF4F"/>
</g>
</svg>
