<svg width="257" height="46" viewBox="0 0 257 46" fill="none" xmlns="http://www.w3.org/2000/svg">
<path d="M0 1.66205H6.53853V11.0719H6.60875C8.37675 9.44862 10.7092 8.58061 13.1083 8.65312C18.929 8.65312 22.8536 12.3125 22.8536 17.6416V29.2362H16.3229V18.8901C16.3229 15.9797 14.622 14.3568 11.5634 14.3568C8.50477 14.3568 6.53853 16.167 6.53853 18.8901V29.2362H0V1.66205Z" fill="white"/>
<path d="M25.9902 23.6105C25.9902 19.9433 28.6352 18.0161 35.0177 17.15C38.7551 16.6194 39.8553 16.0966 39.8553 15.1135C39.8553 14.0446 38.5679 13.2643 36.6719 13.2643C34.1829 13.2643 32.4039 14.5517 31.9513 16.6662L25.9512 15.6051C26.669 11.4151 31.015 8.46576 36.4534 8.46576C42.6486 8.49697 46.5031 11.7038 46.5031 16.7755V29.2595H40.5731V27.2387H40.4951C39.0126 28.8694 36.6016 29.8057 33.6601 29.8057C28.9708 29.8057 25.9902 27.3869 25.9902 23.6105ZM40.1908 21.6442V19.6468H40.1206C39.6992 20.2476 38.7551 20.6299 36.3442 21.1137C33.3168 21.7223 32.3024 22.2528 32.3024 23.2672C32.3024 24.2815 33.2075 24.7809 35.0957 24.7809C37.8891 24.7809 40.1908 23.3452 40.1908 21.6442Z" fill="white"/>
<path d="M72.6807 23.197L78.8057 21.457C79.4923 23.7276 81.5678 24.9292 84.7044 24.9292C87.3494 24.9292 88.8163 24.4454 88.8163 23.5715C88.8163 22.6976 87.6459 22.0968 83.6822 21.496C76.66 20.4349 73.7808 18.5857 73.7808 14.9575C73.7808 11.1031 77.6821 8.49701 83.6042 8.49701C88.9334 8.49701 93.4276 10.9938 94.598 14.544L88.7071 16.2839C88.0283 14.583 85.9138 13.4516 83.3389 13.4516C81.2244 13.4516 80.0151 13.9744 80.0151 14.8483C80.0151 15.7222 80.9982 16.0967 85.3442 16.7755C92.2104 17.9459 95.191 19.678 95.191 23.4077C95.191 27.4104 91.1103 29.9384 84.4625 29.9384C78.4623 29.954 73.773 27.2387 72.6807 23.197Z" fill="white"/>
<path d="M107.363 14.4659V21.6832C107.363 22.8926 107.854 23.3452 109.251 23.3452H112.988V29.2361H108.268C103.056 29.2361 100.824 26.9343 100.824 22.2918V14.4893H96.1426V9.21477H100.824V4.04169H107.363V9.21477H113.745V14.4659H107.363Z" fill="white"/>
<path d="M115.595 23.6105C115.595 19.9433 118.24 18.0161 124.622 17.15C128.367 16.6194 129.46 16.0966 129.46 15.1135C129.46 14.0134 128.172 13.2955 126.245 13.2955C123.756 13.2955 121.977 14.5829 121.525 16.6974L115.556 15.6051C116.273 11.4151 120.62 8.46576 126.058 8.46576C132.253 8.46576 136.108 11.6414 136.108 16.7443V29.2283H130.178V27.2387H130.1C128.594 28.9006 126.198 29.8057 123.265 29.8057C118.599 29.8057 115.595 27.3869 115.595 23.6105ZM129.795 21.6442V19.6468H129.725C129.312 20.2476 128.367 20.6299 125.949 21.1137C122.921 21.7223 121.907 22.2528 121.907 23.2672C121.907 24.2815 122.812 24.7809 124.7 24.7809C127.494 24.7809 129.795 23.3452 129.795 21.6442Z" fill="white"/>
<path d="M139.166 19.2255C139.166 13.0303 144.043 8.49701 150.573 8.49701C155.863 8.49701 160.131 11.4074 161.302 15.6753L155.224 17.5323C154.946 16.5232 154.328 15.6407 153.476 15.0338C152.623 14.4268 151.587 14.1326 150.542 14.2007C147.671 14.2007 145.673 16.2059 145.673 19.2255C145.673 22.2451 147.671 24.2503 150.542 24.2503C151.586 24.3218 152.623 24.0299 153.476 23.424C154.329 22.8181 154.947 21.9357 155.224 20.9265L161.302 22.7757C160.131 27.0514 155.84 29.954 150.573 29.954C144.043 29.954 139.166 25.4207 139.166 19.2255Z" fill="white"/>
<path d="M164.517 1.66205H171.047V16.4869H171.125L179.396 9.1915H188.353L178.834 17.3373L188.463 29.2362H180.761L174.519 21.1918H174.441L171.04 23.9851V29.2362H164.509L164.517 1.66205Z" fill="white"/>
<path d="M188.088 23.197L194.205 21.457C194.884 23.7276 196.967 24.9292 200.096 24.9292C202.741 24.9292 204.216 24.4454 204.216 23.5715C204.216 22.6976 203.045 22.0968 199.082 21.496C192.059 20.4349 189.18 18.5857 189.18 14.9575C189.18 11.1031 193.082 8.49701 199.004 8.49701C204.333 8.49701 208.827 10.9938 209.997 14.544L204.107 16.2839C203.428 14.583 201.305 13.4516 198.738 13.4516C196.624 13.4516 195.414 13.9744 195.414 14.8483C195.414 15.7222 196.398 16.0967 200.744 16.7755C207.618 17.9069 210.567 19.678 210.567 23.4233C210.567 27.426 206.486 29.954 199.839 29.954C193.87 29.954 189.18 27.2387 188.088 23.197Z" fill="white"/>
<path d="M214.57 22.2919H221.71V29.2361H214.57V22.2919Z" fill="white"/>
<path d="M226.164 23.6105C226.164 19.9433 228.809 18.0161 235.192 17.15C238.937 16.6194 240.029 16.0966 240.029 15.1135C240.029 14.0446 238.757 13.2643 236.814 13.2643C234.325 13.2643 232.546 14.5517 232.094 16.6662L226.125 15.6051C226.843 11.4151 231.189 8.46576 236.627 8.46576C242.822 8.46576 246.677 11.6414 246.677 16.7443V29.2283H240.747V27.2387H240.669C239.163 28.9006 236.768 29.8057 233.834 29.8057C229.152 29.8057 226.164 27.3869 226.164 23.6105ZM240.365 21.6442V19.6468H240.318C239.904 20.2476 238.96 20.6299 236.541 21.1137C233.514 21.7223 232.5 22.2528 232.5 23.2672C232.5 24.2815 233.405 24.7809 235.293 24.7809C238.063 24.7809 240.365 23.3452 240.365 21.6442Z" fill="white"/>
<path d="M250.462 0H257V6.11719H250.462V0ZM250.462 9.2148H257V29.2361H250.462V9.2148Z" fill="white"/>
<path d="M59.3694 19.678L54.6255 9.21478H47.3301L56.2718 27.2699L59.3694 19.678Z" fill="white"/>
<path d="M54.6951 39.59C54.8072 39.59 54.898 39.4992 54.898 39.3871C54.898 39.275 54.8072 39.1842 54.6951 39.1842C54.583 39.1842 54.4922 39.275 54.4922 39.3871C54.4922 39.4992 54.583 39.59 54.6951 39.59Z" fill="white"/>
<path d="M72.0637 4.36157H72.0169C71.6476 4.18147 71.2453 4.07903 70.8349 4.06058C70.4245 4.04214 70.0146 4.10809 69.6307 4.25435C69.2467 4.40062 68.8969 4.62408 68.6027 4.91094C68.3086 5.19779 68.0764 5.54193 67.9206 5.92208L52.1282 45.2547C52.1221 45.267 52.1184 45.2803 52.1175 45.2941C52.1165 45.3078 52.1182 45.3215 52.1226 45.3346C52.1269 45.3476 52.1338 45.3597 52.1428 45.3701C52.1518 45.3805 52.1628 45.389 52.1751 45.3951C52.1874 45.4013 52.2007 45.4049 52.2144 45.4059C52.2282 45.4069 52.2419 45.4051 52.255 45.4008C52.268 45.3964 52.2801 45.3896 52.2905 45.3806C52.3008 45.3716 52.3094 45.3606 52.3155 45.3483L73.3433 8.58274C73.5528 8.22536 73.6861 7.82852 73.7348 7.41716C73.7835 7.0058 73.7466 6.58881 73.6264 6.19239C73.5063 5.79596 73.3054 5.42868 73.0365 5.11361C72.7675 4.79855 72.4364 4.5425 72.0637 4.36157ZM71.5097 8.17701L70.5812 9.78434C70.5208 9.91037 70.4361 10.0233 70.332 10.1166C70.2279 10.2099 70.1065 10.2818 69.9746 10.3281C69.7083 10.4218 69.4157 10.4058 69.1612 10.2837C68.9066 10.1616 68.711 9.9434 68.6174 9.67709C68.5237 9.41078 68.5397 9.11817 68.6618 8.86364L69.3484 7.13928C69.4106 6.98894 69.5027 6.85288 69.6193 6.73945C69.7359 6.62602 69.8745 6.53762 70.0265 6.47966C70.1785 6.42171 70.3407 6.39543 70.5032 6.40244C70.6657 6.40945 70.8251 6.4496 70.9715 6.52042C71.118 6.59125 71.2484 6.69125 71.3548 6.8143C71.4612 6.93734 71.5413 7.08083 71.5903 7.23596C71.6392 7.39109 71.6559 7.55459 71.6394 7.71641C71.6229 7.87824 71.5734 8.03498 71.4941 8.17701H71.5097Z" fill="#3DFF4F"/>
</svg>
