<svg width="30" height="33" viewBox="0 0 30 33" fill="none" xmlns="http://www.w3.org/2000/svg">
<path d="M13.2141 20.8867H15.8569V25.5282H13.2141V20.8867ZM19.8212 18.566H22.4641V25.5282H19.8212V18.566ZM6.60693 13.9246H9.24979V25.5282H6.60693V13.9246Z" fill="#1C311C"/>
<path d="M26.4286 3.48114H22.4643V2.32076C22.4643 1.70525 22.1858 1.11496 21.6902 0.679734C21.1946 0.244508 20.5223 0 19.8214 0H9.24999C8.54907 0 7.87685 0.244508 7.38121 0.679734C6.88558 1.11496 6.60714 1.70525 6.60714 2.32076V3.48114H2.64286C1.94193 3.48114 1.26971 3.72564 0.774074 4.16087C0.278443 4.5961 0 5.18639 0 5.80189V30.1698C0 30.7853 0.278443 31.3756 0.774074 31.8109C1.26971 32.2461 1.94193 32.4906 2.64286 32.4906H26.4286C27.1295 32.4906 27.8017 32.2461 28.2973 31.8109C28.793 31.3756 29.0714 30.7853 29.0714 30.1698V5.80189C29.0714 5.18639 28.793 4.5961 28.2973 4.16087C27.8017 3.72564 27.1295 3.48114 26.4286 3.48114V3.48114ZM9.24999 2.32076H19.8214V6.96227H9.24999V2.32076ZM26.4286 30.1698H2.64286V5.80189H6.60714V9.28303H22.4643V5.80189H26.4286V30.1698Z" fill="#1C311C"/>
</svg>
