<svg width="37" height="33" viewBox="0 0 37 33" fill="none" xmlns="http://www.w3.org/2000/svg">
<path d="M37 30.8499L30.8038 25.4101C32.4597 23.5385 33.241 21.1831 32.9886 18.8235C32.7362 16.4639 31.4691 14.2774 29.4453 12.7094C27.4215 11.1414 24.7932 10.3097 22.0956 10.3836C19.3979 10.4576 16.8338 11.4317 14.9254 13.1076C13.0169 14.7834 11.9077 17.035 11.8234 19.4039C11.7392 21.7728 12.6863 24.0808 14.472 25.8579C16.2576 27.6351 18.7475 28.7478 21.4346 28.9694C24.1218 29.191 26.804 28.5049 28.9353 27.0508L35.1315 32.4907L37 30.8499ZM22.4643 26.6888C20.8962 26.6888 19.3633 26.2805 18.0594 25.5154C16.7556 24.7504 15.7393 23.6631 15.1392 22.3909C14.5391 21.1187 14.3821 19.7188 14.6881 18.3682C14.994 17.0177 15.7491 15.7771 16.8579 14.8034C17.9668 13.8297 19.3795 13.1666 20.9175 12.898C22.4555 12.6293 24.0497 12.7672 25.4984 13.2942C26.9472 13.8211 28.1854 14.7135 29.0567 15.8585C29.9279 17.0034 30.3929 18.3495 30.3929 19.7265C30.3904 21.5724 29.5543 23.342 28.0679 24.6472C26.5816 25.9524 24.5663 26.6867 22.4643 26.6888ZM0 11.6038H10.5714V13.9246H0V11.6038ZM0 0H21.1429V2.32077H0V0ZM0 5.80192H21.1429V8.12268H0V5.80192Z" fill="#1C311C"/>
</svg>
