<svg width="33" height="29" viewBox="0 0 33 29" fill="none" xmlns="http://www.w3.org/2000/svg">
<path d="M27.9231 10.116V0H25.3846V2.24801H21.5769V4.49602H25.3846V10.116H21.5769V12.364H31.7308V10.116H27.9231ZM6.98077 2.24801C7.85938 2.24801 8.71825 2.47873 9.44879 2.91101C10.1793 3.34328 10.7487 3.95769 11.0849 4.67654C11.4212 5.39539 11.5091 6.18639 11.3377 6.94951C11.1663 7.71263 10.7432 8.41361 10.122 8.96379C9.50069 9.51397 8.70915 9.88865 7.84742 10.0404C6.9857 10.1922 6.0925 10.1143 5.28077 9.81658C4.46905 9.51882 3.77525 9.01459 3.28713 8.36764C2.799 7.7207 2.53846 6.96009 2.53846 6.18202C2.53981 5.13902 3.00827 4.13908 3.84107 3.40157C4.67387 2.66405 5.80301 2.2492 6.98077 2.24801ZM6.98077 0C5.60011 0 4.25045 0.362569 3.10246 1.04186C1.95448 1.72115 1.05974 2.68665 0.531383 3.81626C0.0030247 4.94588 -0.135218 6.18888 0.134137 7.38807C0.403491 8.58727 1.06835 9.6888 2.04462 10.5534C3.0209 11.4179 4.26476 12.0067 5.61889 12.2453C6.97303 12.4838 8.37663 12.3614 9.6522 11.8935C10.9278 11.4256 12.018 10.6332 12.7851 9.61657C13.5521 8.59994 13.9615 7.40471 13.9615 6.18202C13.9615 4.54245 13.2261 2.97003 11.9169 1.81067C10.6078 0.651318 8.83219 0 6.98077 0ZM26.0192 17.9841C26.8978 17.9841 27.7567 18.2148 28.4872 18.6471C29.2178 19.0793 29.7872 19.6937 30.1234 20.4126C30.4596 21.1314 30.5476 21.9224 30.3762 22.6856C30.2048 23.4487 29.7817 24.1497 29.1604 24.6998C28.5392 25.25 27.7476 25.6247 26.8859 25.7765C26.0242 25.9283 25.131 25.8504 24.3192 25.5526C23.5075 25.2549 22.8137 24.7506 22.3256 24.1037C21.8375 23.4567 21.5769 22.6961 21.5769 21.9181C21.5783 20.8751 22.0467 19.8751 22.8795 19.1376C23.7123 18.4001 24.8415 17.9853 26.0192 17.9841ZM26.0192 15.7361C24.6386 15.7361 23.2889 16.0986 22.1409 16.7779C20.9929 17.4572 20.0982 18.4227 19.5698 19.5523C19.0415 20.6819 18.9032 21.9249 19.1726 23.1241C19.442 24.3233 20.1068 25.4249 21.0831 26.2894C22.0594 27.154 23.3032 27.7428 24.6574 27.9813C26.0115 28.2198 27.4151 28.0974 28.6907 27.6295C29.9662 27.1616 31.0565 26.3692 31.8235 25.3526C32.5906 24.336 33 23.1408 33 21.9181C33 20.2785 32.2645 18.7061 30.9554 17.5467C29.6462 16.3874 27.8706 15.7361 26.0192 15.7361ZM3.8077 16.8601V19.1081H8.35916L1.26923 25.3868L3.06393 26.9761L10.1538 20.6974V24.7281H12.6923V16.8601H3.8077Z" fill="#1C311C"/>
</svg>
