<svg width="37" height="33" viewBox="0 0 37 33" fill="none" xmlns="http://www.w3.org/2000/svg">
<path d="M18.5852 1.90121e-07C18.2886 -0.000149196 18.0006 0.0877398 17.7681 0.2494C17.5355 0.41106 17.372 0.637 17.304 0.890542L15.039 9.3478C12.2924 9.01678 9.49669 9.45131 7.0463 10.5901C4.5959 11.7289 2.61445 13.5144 1.38143 15.6949C0.148408 17.8754 -0.273962 20.3408 0.173892 22.7434C0.621747 25.146 1.91723 27.3644 3.87761 29.0859C5.83799 30.8074 8.36433 31.945 11.1003 32.3383C13.8363 32.7315 16.6438 32.3606 19.127 31.2779C21.6101 30.1951 23.6434 28.4551 24.9402 26.3034C26.2371 24.1516 26.7319 21.6966 26.3549 19.2847L35.9859 17.2957C36.2746 17.236 36.5319 17.0925 36.716 16.8882C36.9001 16.684 37.0002 16.4311 37 16.1707C36.9944 11.8834 35.0525 7.77321 31.6003 4.74168C28.148 1.71015 23.4674 0.0048915 18.5852 1.90121e-07ZM12.3939 21.6075C12.6405 21.8241 12.975 21.9458 13.3238 21.9459C13.4252 21.946 13.5263 21.9359 13.625 21.9159L18.5734 20.8925C18.5515 21.7968 18.2275 22.6756 17.6416 23.4195C17.0558 24.1635 16.2339 24.74 15.2782 25.0772C14.3224 25.4144 13.2748 25.4977 12.2656 25.3165C11.2565 25.1353 10.3302 24.6977 9.6018 24.0581C8.87344 23.4186 8.37515 22.6051 8.16883 21.7189C7.96251 20.8327 8.05727 19.9128 8.44132 19.0735C8.82537 18.2342 9.48179 17.5125 10.329 16.9981C11.1762 16.4836 12.1769 16.1991 13.2068 16.1799L12.0427 20.5264C11.9915 20.7179 11.9969 20.9178 12.0584 21.107C12.1198 21.2962 12.2353 21.4685 12.3939 21.6075ZM15.0903 19.2396L18.0775 8.09342C20.6391 8.12971 23.0842 9.03946 24.8958 10.6303C26.7074 12.2211 27.7434 14.3682 27.7847 16.6177L15.0903 19.2396ZM23.8466 20.7909C23.8466 22.6184 23.2294 24.405 22.0732 25.9245C20.9169 27.4441 19.2735 28.6285 17.3507 29.3279C15.4279 30.0273 13.3121 30.2102 11.2709 29.8537C9.22972 29.4972 7.35475 28.6171 5.88311 27.3248C4.41148 26.0325 3.40929 24.386 3.00326 22.5936C2.59724 20.8011 2.80563 18.9432 3.60207 17.2547C4.39851 15.5663 5.74724 14.1231 7.47769 13.1078C9.20815 12.0924 11.2426 11.5505 13.3238 11.5505C13.6947 11.5516 14.0652 11.5697 14.434 11.6048L13.8236 13.8825C13.6566 13.8733 13.4909 13.8606 13.3238 13.8606C11.7629 13.8606 10.2371 14.267 8.93923 15.0285C7.64138 15.7901 6.62984 16.8724 6.03251 18.1388C5.43517 19.4051 5.27889 20.7986 5.5834 22.1429C5.88792 23.4872 6.63957 24.7221 7.74329 25.6913C8.84702 26.6605 10.2532 27.3206 11.7842 27.588C13.3151 27.8554 14.9019 27.7182 16.344 27.1936C17.7861 26.6691 19.0186 25.7808 19.8858 24.6411C20.753 23.5014 21.2159 22.1615 21.2159 20.7909C21.2159 20.6442 21.2014 20.4986 21.1909 20.3519L23.7847 19.816C23.8246 20.1398 23.8453 20.4652 23.8466 20.7909ZM30.3838 16.0783C30.1948 13.4093 28.9021 10.8929 26.7488 9.00196C24.5955 7.11106 21.7298 5.97591 18.6904 5.80989L19.6191 2.33897C23.4381 2.56382 27.0346 3.99762 29.7411 6.37431C32.4476 8.751 34.0804 11.9092 34.3364 15.2628L30.3838 16.0783Z" fill="#1C311C"/>
</svg>
